M48
; DRILL file {KiCad 7.0.11+dfsg-1build4} date Sat 15 Mar 2025 04:42:34 PM EDT
; FORMAT={-:-/ absolute / inch / decimal}
; #@! TF.CreationDate,2025-03-15T16:42:34-04:00
; #@! TF.GenerationSoftware,Kicad,Pcbnew,7.0.11+dfsg-1build4
; #@! TF.FileFunction,Plated,1,2,PTH
FMAT,2
INCH
; #@! TA.AperFunction,Plated,PTH,ComponentDrill
T1C0.0400
%
G90
G05
T1
X3.91Y-3.1
X4.01Y-3.1
X4.11Y-3.1
X4.21Y-3.1
X4.31Y-3.1
X4.41Y-3.1
X5.34Y-3.1
X5.44Y-3.1
X5.54Y-3.1
X5.64Y-2.77
X5.64Y-3.1
X5.7Y-5.0
X5.74Y-2.77
X5.74Y-3.1
X5.8Y-5.0
X5.84Y-2.77
X5.84Y-3.1
X5.9Y-5.0
X5.94Y-2.77
X5.94Y-3.1
X6.0Y-5.0
X6.04Y-2.77
X6.04Y-3.1
X6.1Y-5.0
X6.14Y-2.77
X6.14Y-3.1
X6.2Y-5.0
X6.24Y-2.77
X6.24Y-3.1
X6.3Y-5.0
X6.4Y-3.1
X6.4Y-5.0
X6.5Y-3.1
X6.6Y-3.1
X6.6Y-5.0
X6.7Y-3.1
X6.7Y-5.0
X6.8Y-3.1
X6.8Y-5.0
X6.9Y-3.1
X6.9Y-5.0
X7.0Y-3.1
X7.0Y-5.0
X7.1Y-3.1
X7.1Y-5.0
M30
