%TF.GenerationSoftware,KiCad,Pcbnew,7.0.11+dfsg-1build4*%
%TF.CreationDate,2025-05-03T14:01:42-04:00*%
%TF.ProjectId,Peripherals Board,50657269-7068-4657-9261-6c7320426f61,rev?*%
%TF.SameCoordinates,Original*%
%TF.FileFunction,Copper,L2,Bot*%
%TF.FilePolarity,Positive*%
%FSLAX46Y46*%
G04 Gerber Fmt 4.6, Leading zero omitted, Abs format (unit mm)*
G04 Created by KiCad (PCBNEW 7.0.11+dfsg-1build4) date 2025-05-03 14:01:42*
%MOMM*%
%LPD*%
G01*
G04 APERTURE LIST*
%TA.AperFunction,ComponentPad*%
%ADD10O,1.727200X1.727200*%
%TD*%
%TA.AperFunction,ComponentPad*%
%ADD11R,1.727200X1.727200*%
%TD*%
%TA.AperFunction,Conductor*%
%ADD12C,0.200000*%
%TD*%
G04 APERTURE END LIST*
D10*
%TO.P,,PB5_1*%
%TO.N,N/C*%
X165100000Y-117856000D03*
%TD*%
%TO.P,,PB3_1*%
%TO.N,N/C*%
X146812000Y-117856000D03*
%TD*%
%TO.P,,SDA*%
%TO.N,N/C*%
X150876000Y-70358000D03*
%TD*%
D11*
%TO.P,,GND*%
%TO.N,N/C*%
X112014000Y-78740000D03*
%TD*%
D10*
%TO.P,,PB2_3*%
%TO.N,N/C*%
X137668000Y-123952000D03*
%TD*%
D11*
%TO.P,,GND*%
%TO.N,N/C*%
X158496000Y-70358000D03*
%TD*%
D10*
%TO.P,,SCK*%
%TO.N,N/C*%
X153416000Y-70358000D03*
%TD*%
%TO.P,,5V*%
%TO.N,N/C*%
X109474000Y-78740000D03*
%TD*%
%TO.P,,PB6_1*%
%TO.N,N/C*%
X174244000Y-117856000D03*
%TD*%
%TO.P,,PB1_3*%
%TO.N,N/C*%
X128524000Y-123952000D03*
%TD*%
%TO.P,,PB5_3*%
%TO.N,N/C*%
X165100000Y-123952000D03*
%TD*%
%TO.P, ,3V3*%
%TO.N,N/C*%
X152400000Y-127000000D03*
%TO.P, ,5V1*%
X154940000Y-127000000D03*
%TO.P, ,A0*%
X167640000Y-127000000D03*
%TO.P, ,A1*%
X170180000Y-127000000D03*
%TO.P, ,A2*%
X172720000Y-127000000D03*
%TO.P, ,A3*%
X175260000Y-127000000D03*
%TO.P, ,A4*%
X177800000Y-127000000D03*
%TO.P, ,A5*%
X180340000Y-127000000D03*
%TO.P, ,AREF*%
X140716000Y-78740000D03*
%TO.P, ,BOOT*%
X144780000Y-127000000D03*
%TO.P, ,D0*%
X180340000Y-78740000D03*
%TO.P, ,D1*%
X177800000Y-78740000D03*
%TO.P, ,D2*%
X175260000Y-78740000D03*
%TO.P, ,D3*%
X172720000Y-78740000D03*
%TO.P, ,D4*%
X170180000Y-78740000D03*
%TO.P, ,D5*%
X167640000Y-78740000D03*
%TO.P, ,D6*%
X165100000Y-78740000D03*
%TO.P, ,D7*%
X162560000Y-78740000D03*
%TO.P, ,D8*%
X158496000Y-78740000D03*
%TO.P, ,D9*%
X155956000Y-78740000D03*
%TO.P, ,D10*%
X153416000Y-78740000D03*
%TO.P, ,D11*%
X150876000Y-78740000D03*
%TO.P, ,D12*%
X148336000Y-78740000D03*
%TO.P, ,D13*%
X145796000Y-78740000D03*
D11*
%TO.P, ,GND1*%
X143256000Y-78740000D03*
%TO.P, ,GND2*%
X157480000Y-127000000D03*
%TO.P, ,GND3*%
X160020000Y-127000000D03*
D10*
%TO.P, ,IORF*%
X147320000Y-127000000D03*
%TO.P, ,RST1*%
X149860000Y-127000000D03*
%TO.P, ,SCL*%
X135636000Y-78740000D03*
%TO.P, ,SDA*%
X138176000Y-78740000D03*
%TO.P, ,VIN*%
X162560000Y-127000000D03*
%TD*%
%TO.P,,PB1_2*%
%TO.N,N/C*%
X134620000Y-117856000D03*
%TD*%
%TO.P,,3V3*%
%TO.N,N/C*%
X155956000Y-70358000D03*
%TD*%
%TO.P,,MISO*%
%TO.N,N/C*%
X106934000Y-78740000D03*
%TD*%
%TO.P,,CS*%
%TO.N,N/C*%
X143256000Y-70358000D03*
%TD*%
%TO.P,,PB3_3*%
%TO.N,N/C*%
X146812000Y-123952000D03*
%TD*%
%TO.P,,PB5_2*%
%TO.N,N/C*%
X171196000Y-117856000D03*
%TD*%
%TO.P,,PB2_1*%
%TO.N,N/C*%
X137668000Y-117856000D03*
%TD*%
%TO.P,,PB5_4*%
%TO.N,N/C*%
X171196000Y-123952000D03*
%TD*%
%TO.P,,PB6_2*%
%TO.N,N/C*%
X180340000Y-117856000D03*
%TD*%
%TO.P,,RES*%
%TO.N,N/C*%
X148336000Y-70358000D03*
%TD*%
%TO.P,,PB1_4*%
%TO.N,N/C*%
X134620000Y-123952000D03*
%TD*%
%TO.P,,PB4_4*%
%TO.N,N/C*%
X162052000Y-123952000D03*
%TD*%
%TO.P,,PB1_1*%
%TO.N,N/C*%
X128524000Y-117856000D03*
%TD*%
%TO.P,,PB3_2*%
%TO.N,N/C*%
X152908000Y-117856000D03*
%TD*%
%TO.P,,PB4_1*%
%TO.N,N/C*%
X155956000Y-117856000D03*
%TD*%
%TO.P,,PB4_2*%
%TO.N,N/C*%
X162052000Y-117856000D03*
%TD*%
%TO.P,,MOSI*%
%TO.N,N/C*%
X104394000Y-78740000D03*
%TD*%
%TO.P,,SCK*%
%TO.N,N/C*%
X101854000Y-78740000D03*
%TD*%
%TO.P,,PB2_2*%
%TO.N,N/C*%
X143764000Y-117856000D03*
%TD*%
%TO.P,,PB2_4*%
%TO.N,N/C*%
X143764000Y-123952000D03*
%TD*%
%TO.P,,PB4_3*%
%TO.N,N/C*%
X155956000Y-123952000D03*
%TD*%
%TO.P,,PB6_4*%
%TO.N,N/C*%
X180340000Y-123952000D03*
%TD*%
%TO.P,,CS*%
%TO.N,N/C*%
X99314000Y-78740000D03*
%TD*%
%TO.P,,PB3_4*%
%TO.N,N/C*%
X152908000Y-123952000D03*
%TD*%
%TO.P,,DC*%
%TO.N,N/C*%
X145796000Y-70358000D03*
%TD*%
%TO.P,,PB6_3*%
%TO.N,N/C*%
X174244000Y-123952000D03*
%TD*%
D12*
%TO.N,*%
X159004000Y-122428000D02*
X159512000Y-121920000D01*
X179832000Y-122174000D02*
X180340000Y-121666000D01*
X145034000Y-81534000D02*
X145796000Y-80772000D01*
X160782000Y-112014000D02*
X160782000Y-74676000D01*
X133858000Y-119380000D02*
X143256000Y-119380000D01*
X180340000Y-121666000D02*
X180340000Y-117856000D01*
X112014000Y-80518000D02*
X112522000Y-81026000D01*
X112014000Y-76962000D02*
X111506000Y-76454000D01*
X112522000Y-81026000D02*
X142748000Y-81026000D01*
X153416000Y-70358000D02*
X153416000Y-68834000D01*
X161544000Y-122174000D02*
X170688000Y-122174000D01*
X153162000Y-68580000D02*
X142240000Y-68580000D01*
X101854000Y-78740000D02*
X101854000Y-80264000D01*
X160782000Y-74676000D02*
X158496000Y-72390000D01*
X145288000Y-75184000D02*
X145796000Y-75692000D01*
X112014000Y-78740000D02*
X112014000Y-76962000D01*
X143256000Y-119380000D02*
X143764000Y-118872000D01*
X101854000Y-80264000D02*
X103124000Y-81534000D01*
X103124000Y-81534000D02*
X145034000Y-81534000D01*
X133858000Y-119380000D02*
X134620000Y-118618000D01*
X160274000Y-74930000D02*
X157988000Y-72644000D01*
X142748000Y-81026000D02*
X143256000Y-80518000D01*
X156718000Y-72644000D02*
X155956000Y-71882000D01*
X125984000Y-109982000D02*
X125984000Y-117602000D01*
X160020000Y-122174000D02*
X160020000Y-112776000D01*
X150876000Y-70358000D02*
X150876000Y-78740000D01*
X159512000Y-112776000D02*
X160274000Y-112014000D01*
X144780000Y-75184000D02*
X145288000Y-75184000D01*
X111506000Y-76454000D02*
X98552000Y-76454000D01*
X153416000Y-68834000D02*
X153162000Y-68580000D01*
X160020000Y-112776000D02*
X160782000Y-112014000D01*
X155956000Y-71882000D02*
X155956000Y-70358000D01*
X152400000Y-119380000D02*
X152908000Y-118872000D01*
X145796000Y-80772000D02*
X145796000Y-78740000D01*
X97536000Y-81534000D02*
X125984000Y-109982000D01*
X160020000Y-123190000D02*
X161036000Y-122174000D01*
X141732000Y-72136000D02*
X144780000Y-75184000D01*
X161036000Y-122174000D02*
X161544000Y-122174000D01*
X157988000Y-72644000D02*
X156718000Y-72644000D01*
X162052000Y-121666000D02*
X161544000Y-122174000D01*
X143256000Y-80518000D02*
X143256000Y-78740000D01*
X152146000Y-122428000D02*
X159004000Y-122428000D01*
X162052000Y-121666000D02*
X162052000Y-117856000D01*
X171196000Y-121666000D02*
X171196000Y-117856000D01*
X151384000Y-124460000D02*
X151384000Y-123190000D01*
X160274000Y-112014000D02*
X160274000Y-74930000D01*
X143256000Y-119380000D02*
X152400000Y-119380000D01*
X145796000Y-75692000D02*
X145796000Y-78740000D01*
X158496000Y-72390000D02*
X158496000Y-70358000D01*
X160020000Y-127000000D02*
X160020000Y-123190000D01*
X112014000Y-78740000D02*
X112014000Y-80518000D01*
X158496000Y-70358000D02*
X158496000Y-70104000D01*
X157480000Y-127000000D02*
X157480000Y-124714000D01*
X159512000Y-121920000D02*
X159512000Y-112776000D01*
X151384000Y-123190000D02*
X152146000Y-122428000D01*
X141732000Y-69088000D02*
X141732000Y-72136000D01*
X125984000Y-117602000D02*
X127762000Y-119380000D01*
X97536000Y-77470000D02*
X97536000Y-81534000D01*
X152908000Y-118872000D02*
X152908000Y-117856000D01*
X142240000Y-68580000D02*
X141732000Y-69088000D01*
X152400000Y-127000000D02*
X152400000Y-125476000D01*
X127762000Y-119380000D02*
X133858000Y-119380000D01*
X170688000Y-122174000D02*
X179832000Y-122174000D01*
X143764000Y-118872000D02*
X143764000Y-117856000D01*
X157480000Y-124714000D02*
X160020000Y-122174000D01*
X134620000Y-118618000D02*
X134620000Y-117856000D01*
X152400000Y-125476000D02*
X151384000Y-124460000D01*
X98552000Y-76454000D02*
X97536000Y-77470000D01*
X170688000Y-122174000D02*
X171196000Y-121666000D01*
%TD*%
M02*
