%TF.GenerationSoftware,KiCad,Pcbnew,7.0.11+dfsg-1build4*%
%TF.CreationDate,2025-05-03T14:01:37-04:00*%
%TF.ProjectId,Peripherals Board,50657269-7068-4657-9261-6c7320426f61,rev?*%
%TF.SameCoordinates,Original*%
%TF.FileFunction,Drillmap*%
%TF.FilePolarity,Positive*%
%FSLAX45Y45*%
G04 Gerber Fmt 4.5, Leading zero omitted, Abs format (unit mm)*
G04 Created by KiCad (PCBNEW 7.0.11+dfsg-1build4) date 2025-05-03 14:01:37*
%MOMM*%
%LPD*%
G01*
G04 APERTURE LIST*
%ADD10C,0.050000*%
%ADD11C,0.200000*%
%ADD12C,0.101600*%
G04 APERTURE END LIST*
D10*
X18313400Y-12979400D02*
X9652000Y-12979400D01*
X9652000Y-6731000D02*
X18313400Y-6731000D01*
X9652000Y-12979400D02*
X9652000Y-6731000D01*
X18313400Y-6731000D02*
X18313400Y-12979400D01*
D11*
D12*
X9880600Y-7823200D02*
X9982200Y-7924800D01*
X9982200Y-7823200D02*
X9880600Y-7924800D01*
X10134600Y-7823200D02*
X10236200Y-7924800D01*
X10236200Y-7823200D02*
X10134600Y-7924800D01*
X10388600Y-7823200D02*
X10490200Y-7924800D01*
X10490200Y-7823200D02*
X10388600Y-7924800D01*
X10642600Y-7823200D02*
X10744200Y-7924800D01*
X10744200Y-7823200D02*
X10642600Y-7924800D01*
X10896600Y-7823200D02*
X10998200Y-7924800D01*
X10998200Y-7823200D02*
X10896600Y-7924800D01*
X11150600Y-7823200D02*
X11252200Y-7924800D01*
X11252200Y-7823200D02*
X11150600Y-7924800D01*
X12801600Y-11734800D02*
X12903200Y-11836400D01*
X12903200Y-11734800D02*
X12801600Y-11836400D01*
X12801600Y-12344400D02*
X12903200Y-12446000D01*
X12903200Y-12344400D02*
X12801600Y-12446000D01*
X13411200Y-11734800D02*
X13512800Y-11836400D01*
X13512800Y-11734800D02*
X13411200Y-11836400D01*
X13411200Y-12344400D02*
X13512800Y-12446000D01*
X13512800Y-12344400D02*
X13411200Y-12446000D01*
X13512800Y-7823200D02*
X13614400Y-7924800D01*
X13614400Y-7823200D02*
X13512800Y-7924800D01*
X13716000Y-11734800D02*
X13817600Y-11836400D01*
X13817600Y-11734800D02*
X13716000Y-11836400D01*
X13716000Y-12344400D02*
X13817600Y-12446000D01*
X13817600Y-12344400D02*
X13716000Y-12446000D01*
X13766800Y-7823200D02*
X13868400Y-7924800D01*
X13868400Y-7823200D02*
X13766800Y-7924800D01*
X14020800Y-7823200D02*
X14122400Y-7924800D01*
X14122400Y-7823200D02*
X14020800Y-7924800D01*
X14274800Y-6985000D02*
X14376400Y-7086600D01*
X14376400Y-6985000D02*
X14274800Y-7086600D01*
X14274800Y-7823200D02*
X14376400Y-7924800D01*
X14376400Y-7823200D02*
X14274800Y-7924800D01*
X14325600Y-11734800D02*
X14427200Y-11836400D01*
X14427200Y-11734800D02*
X14325600Y-11836400D01*
X14325600Y-12344400D02*
X14427200Y-12446000D01*
X14427200Y-12344400D02*
X14325600Y-12446000D01*
X14427200Y-12649200D02*
X14528800Y-12750800D01*
X14528800Y-12649200D02*
X14427200Y-12750800D01*
X14528800Y-6985000D02*
X14630400Y-7086600D01*
X14630400Y-6985000D02*
X14528800Y-7086600D01*
X14528800Y-7823200D02*
X14630400Y-7924800D01*
X14630400Y-7823200D02*
X14528800Y-7924800D01*
X14630400Y-11734800D02*
X14732000Y-11836400D01*
X14732000Y-11734800D02*
X14630400Y-11836400D01*
X14630400Y-12344400D02*
X14732000Y-12446000D01*
X14732000Y-12344400D02*
X14630400Y-12446000D01*
X14681200Y-12649200D02*
X14782800Y-12750800D01*
X14782800Y-12649200D02*
X14681200Y-12750800D01*
X14782800Y-6985000D02*
X14884400Y-7086600D01*
X14884400Y-6985000D02*
X14782800Y-7086600D01*
X14782800Y-7823200D02*
X14884400Y-7924800D01*
X14884400Y-7823200D02*
X14782800Y-7924800D01*
X14935200Y-12649200D02*
X15036800Y-12750800D01*
X15036800Y-12649200D02*
X14935200Y-12750800D01*
X15036800Y-6985000D02*
X15138400Y-7086600D01*
X15138400Y-6985000D02*
X15036800Y-7086600D01*
X15036800Y-7823200D02*
X15138400Y-7924800D01*
X15138400Y-7823200D02*
X15036800Y-7924800D01*
X15189200Y-12649200D02*
X15290800Y-12750800D01*
X15290800Y-12649200D02*
X15189200Y-12750800D01*
X15240000Y-11734800D02*
X15341600Y-11836400D01*
X15341600Y-11734800D02*
X15240000Y-11836400D01*
X15240000Y-12344400D02*
X15341600Y-12446000D01*
X15341600Y-12344400D02*
X15240000Y-12446000D01*
X15290800Y-6985000D02*
X15392400Y-7086600D01*
X15392400Y-6985000D02*
X15290800Y-7086600D01*
X15290800Y-7823200D02*
X15392400Y-7924800D01*
X15392400Y-7823200D02*
X15290800Y-7924800D01*
X15443200Y-12649200D02*
X15544800Y-12750800D01*
X15544800Y-12649200D02*
X15443200Y-12750800D01*
X15544800Y-6985000D02*
X15646400Y-7086600D01*
X15646400Y-6985000D02*
X15544800Y-7086600D01*
X15544800Y-7823200D02*
X15646400Y-7924800D01*
X15646400Y-7823200D02*
X15544800Y-7924800D01*
X15544800Y-11734800D02*
X15646400Y-11836400D01*
X15646400Y-11734800D02*
X15544800Y-11836400D01*
X15544800Y-12344400D02*
X15646400Y-12446000D01*
X15646400Y-12344400D02*
X15544800Y-12446000D01*
X15697200Y-12649200D02*
X15798800Y-12750800D01*
X15798800Y-12649200D02*
X15697200Y-12750800D01*
X15798800Y-6985000D02*
X15900400Y-7086600D01*
X15900400Y-6985000D02*
X15798800Y-7086600D01*
X15798800Y-7823200D02*
X15900400Y-7924800D01*
X15900400Y-7823200D02*
X15798800Y-7924800D01*
X15951200Y-12649200D02*
X16052800Y-12750800D01*
X16052800Y-12649200D02*
X15951200Y-12750800D01*
X16154400Y-11734800D02*
X16256000Y-11836400D01*
X16256000Y-11734800D02*
X16154400Y-11836400D01*
X16154400Y-12344400D02*
X16256000Y-12446000D01*
X16256000Y-12344400D02*
X16154400Y-12446000D01*
X16205200Y-7823200D02*
X16306800Y-7924800D01*
X16306800Y-7823200D02*
X16205200Y-7924800D01*
X16205200Y-12649200D02*
X16306800Y-12750800D01*
X16306800Y-12649200D02*
X16205200Y-12750800D01*
X16459200Y-7823200D02*
X16560800Y-7924800D01*
X16560800Y-7823200D02*
X16459200Y-7924800D01*
X16459200Y-11734800D02*
X16560800Y-11836400D01*
X16560800Y-11734800D02*
X16459200Y-11836400D01*
X16459200Y-12344400D02*
X16560800Y-12446000D01*
X16560800Y-12344400D02*
X16459200Y-12446000D01*
X16713200Y-7823200D02*
X16814800Y-7924800D01*
X16814800Y-7823200D02*
X16713200Y-7924800D01*
X16713200Y-12649200D02*
X16814800Y-12750800D01*
X16814800Y-12649200D02*
X16713200Y-12750800D01*
X16967200Y-7823200D02*
X17068800Y-7924800D01*
X17068800Y-7823200D02*
X16967200Y-7924800D01*
X16967200Y-12649200D02*
X17068800Y-12750800D01*
X17068800Y-12649200D02*
X16967200Y-12750800D01*
X17068800Y-11734800D02*
X17170400Y-11836400D01*
X17170400Y-11734800D02*
X17068800Y-11836400D01*
X17068800Y-12344400D02*
X17170400Y-12446000D01*
X17170400Y-12344400D02*
X17068800Y-12446000D01*
X17221200Y-7823200D02*
X17322800Y-7924800D01*
X17322800Y-7823200D02*
X17221200Y-7924800D01*
X17221200Y-12649200D02*
X17322800Y-12750800D01*
X17322800Y-12649200D02*
X17221200Y-12750800D01*
X17373600Y-11734800D02*
X17475200Y-11836400D01*
X17475200Y-11734800D02*
X17373600Y-11836400D01*
X17373600Y-12344400D02*
X17475200Y-12446000D01*
X17475200Y-12344400D02*
X17373600Y-12446000D01*
X17475200Y-7823200D02*
X17576800Y-7924800D01*
X17576800Y-7823200D02*
X17475200Y-7924800D01*
X17475200Y-12649200D02*
X17576800Y-12750800D01*
X17576800Y-12649200D02*
X17475200Y-12750800D01*
X17729200Y-7823200D02*
X17830800Y-7924800D01*
X17830800Y-7823200D02*
X17729200Y-7924800D01*
X17729200Y-12649200D02*
X17830800Y-12750800D01*
X17830800Y-12649200D02*
X17729200Y-12750800D01*
X17983200Y-7823200D02*
X18084800Y-7924800D01*
X18084800Y-7823200D02*
X17983200Y-7924800D01*
X17983200Y-11734800D02*
X18084800Y-11836400D01*
X18084800Y-11734800D02*
X17983200Y-11836400D01*
X17983200Y-12344400D02*
X18084800Y-12446000D01*
X18084800Y-12344400D02*
X17983200Y-12446000D01*
X17983200Y-12649200D02*
X18084800Y-12750800D01*
X18084800Y-12649200D02*
X17983200Y-12750800D01*
D11*
X9910277Y-13293384D02*
X9910277Y-13093384D01*
X9910277Y-13093384D02*
X9957896Y-13093384D01*
X9957896Y-13093384D02*
X9986467Y-13102908D01*
X9986467Y-13102908D02*
X10005515Y-13121955D01*
X10005515Y-13121955D02*
X10015039Y-13141003D01*
X10015039Y-13141003D02*
X10024563Y-13179098D01*
X10024563Y-13179098D02*
X10024563Y-13207669D01*
X10024563Y-13207669D02*
X10015039Y-13245765D01*
X10015039Y-13245765D02*
X10005515Y-13264812D01*
X10005515Y-13264812D02*
X9986467Y-13283860D01*
X9986467Y-13283860D02*
X9957896Y-13293384D01*
X9957896Y-13293384D02*
X9910277Y-13293384D01*
X10110277Y-13293384D02*
X10110277Y-13160050D01*
X10110277Y-13198146D02*
X10119801Y-13179098D01*
X10119801Y-13179098D02*
X10129324Y-13169574D01*
X10129324Y-13169574D02*
X10148372Y-13160050D01*
X10148372Y-13160050D02*
X10167420Y-13160050D01*
X10234086Y-13293384D02*
X10234086Y-13160050D01*
X10234086Y-13093384D02*
X10224563Y-13102908D01*
X10224563Y-13102908D02*
X10234086Y-13112431D01*
X10234086Y-13112431D02*
X10243610Y-13102908D01*
X10243610Y-13102908D02*
X10234086Y-13093384D01*
X10234086Y-13093384D02*
X10234086Y-13112431D01*
X10357896Y-13293384D02*
X10338848Y-13283860D01*
X10338848Y-13283860D02*
X10329324Y-13264812D01*
X10329324Y-13264812D02*
X10329324Y-13093384D01*
X10462658Y-13293384D02*
X10443610Y-13283860D01*
X10443610Y-13283860D02*
X10434086Y-13264812D01*
X10434086Y-13264812D02*
X10434086Y-13093384D01*
X10691229Y-13293384D02*
X10691229Y-13093384D01*
X10691229Y-13093384D02*
X10757896Y-13236241D01*
X10757896Y-13236241D02*
X10824563Y-13093384D01*
X10824563Y-13093384D02*
X10824563Y-13293384D01*
X11005515Y-13293384D02*
X11005515Y-13188622D01*
X11005515Y-13188622D02*
X10995991Y-13169574D01*
X10995991Y-13169574D02*
X10976944Y-13160050D01*
X10976944Y-13160050D02*
X10938848Y-13160050D01*
X10938848Y-13160050D02*
X10919801Y-13169574D01*
X11005515Y-13283860D02*
X10986467Y-13293384D01*
X10986467Y-13293384D02*
X10938848Y-13293384D01*
X10938848Y-13293384D02*
X10919801Y-13283860D01*
X10919801Y-13283860D02*
X10910277Y-13264812D01*
X10910277Y-13264812D02*
X10910277Y-13245765D01*
X10910277Y-13245765D02*
X10919801Y-13226717D01*
X10919801Y-13226717D02*
X10938848Y-13217193D01*
X10938848Y-13217193D02*
X10986467Y-13217193D01*
X10986467Y-13217193D02*
X11005515Y-13207669D01*
X11100753Y-13160050D02*
X11100753Y-13360050D01*
X11100753Y-13169574D02*
X11119801Y-13160050D01*
X11119801Y-13160050D02*
X11157896Y-13160050D01*
X11157896Y-13160050D02*
X11176944Y-13169574D01*
X11176944Y-13169574D02*
X11186467Y-13179098D01*
X11186467Y-13179098D02*
X11195991Y-13198146D01*
X11195991Y-13198146D02*
X11195991Y-13255288D01*
X11195991Y-13255288D02*
X11186467Y-13274336D01*
X11186467Y-13274336D02*
X11176944Y-13283860D01*
X11176944Y-13283860D02*
X11157896Y-13293384D01*
X11157896Y-13293384D02*
X11119801Y-13293384D01*
X11119801Y-13293384D02*
X11100753Y-13283860D01*
X11281705Y-13274336D02*
X11291229Y-13283860D01*
X11291229Y-13283860D02*
X11281705Y-13293384D01*
X11281705Y-13293384D02*
X11272182Y-13283860D01*
X11272182Y-13283860D02*
X11281705Y-13274336D01*
X11281705Y-13274336D02*
X11281705Y-13293384D01*
X11281705Y-13169574D02*
X11291229Y-13179098D01*
X11291229Y-13179098D02*
X11281705Y-13188622D01*
X11281705Y-13188622D02*
X11272182Y-13179098D01*
X11272182Y-13179098D02*
X11281705Y-13169574D01*
X11281705Y-13169574D02*
X11281705Y-13188622D01*
D12*
X9547900Y-13571100D02*
X9649500Y-13672700D01*
X9649500Y-13571100D02*
X9547900Y-13672700D01*
D11*
X10015039Y-13713384D02*
X9900753Y-13713384D01*
X9957896Y-13713384D02*
X9957896Y-13513384D01*
X9957896Y-13513384D02*
X9938848Y-13541955D01*
X9938848Y-13541955D02*
X9919801Y-13561003D01*
X9919801Y-13561003D02*
X9900753Y-13570527D01*
X10100753Y-13694336D02*
X10110277Y-13703860D01*
X10110277Y-13703860D02*
X10100753Y-13713384D01*
X10100753Y-13713384D02*
X10091229Y-13703860D01*
X10091229Y-13703860D02*
X10100753Y-13694336D01*
X10100753Y-13694336D02*
X10100753Y-13713384D01*
X10234086Y-13513384D02*
X10253134Y-13513384D01*
X10253134Y-13513384D02*
X10272182Y-13522908D01*
X10272182Y-13522908D02*
X10281705Y-13532431D01*
X10281705Y-13532431D02*
X10291229Y-13551479D01*
X10291229Y-13551479D02*
X10300753Y-13589574D01*
X10300753Y-13589574D02*
X10300753Y-13637193D01*
X10300753Y-13637193D02*
X10291229Y-13675288D01*
X10291229Y-13675288D02*
X10281705Y-13694336D01*
X10281705Y-13694336D02*
X10272182Y-13703860D01*
X10272182Y-13703860D02*
X10253134Y-13713384D01*
X10253134Y-13713384D02*
X10234086Y-13713384D01*
X10234086Y-13713384D02*
X10215039Y-13703860D01*
X10215039Y-13703860D02*
X10205515Y-13694336D01*
X10205515Y-13694336D02*
X10195991Y-13675288D01*
X10195991Y-13675288D02*
X10186467Y-13637193D01*
X10186467Y-13637193D02*
X10186467Y-13589574D01*
X10186467Y-13589574D02*
X10195991Y-13551479D01*
X10195991Y-13551479D02*
X10205515Y-13532431D01*
X10205515Y-13532431D02*
X10215039Y-13522908D01*
X10215039Y-13522908D02*
X10234086Y-13513384D01*
X10491229Y-13713384D02*
X10376944Y-13713384D01*
X10434086Y-13713384D02*
X10434086Y-13513384D01*
X10434086Y-13513384D02*
X10415039Y-13541955D01*
X10415039Y-13541955D02*
X10395991Y-13561003D01*
X10395991Y-13561003D02*
X10376944Y-13570527D01*
X10662658Y-13513384D02*
X10624563Y-13513384D01*
X10624563Y-13513384D02*
X10605515Y-13522908D01*
X10605515Y-13522908D02*
X10595991Y-13532431D01*
X10595991Y-13532431D02*
X10576944Y-13561003D01*
X10576944Y-13561003D02*
X10567420Y-13599098D01*
X10567420Y-13599098D02*
X10567420Y-13675288D01*
X10567420Y-13675288D02*
X10576944Y-13694336D01*
X10576944Y-13694336D02*
X10586467Y-13703860D01*
X10586467Y-13703860D02*
X10605515Y-13713384D01*
X10605515Y-13713384D02*
X10643610Y-13713384D01*
X10643610Y-13713384D02*
X10662658Y-13703860D01*
X10662658Y-13703860D02*
X10672182Y-13694336D01*
X10672182Y-13694336D02*
X10681705Y-13675288D01*
X10681705Y-13675288D02*
X10681705Y-13627669D01*
X10681705Y-13627669D02*
X10672182Y-13608622D01*
X10672182Y-13608622D02*
X10662658Y-13599098D01*
X10662658Y-13599098D02*
X10643610Y-13589574D01*
X10643610Y-13589574D02*
X10605515Y-13589574D01*
X10605515Y-13589574D02*
X10586467Y-13599098D01*
X10586467Y-13599098D02*
X10576944Y-13608622D01*
X10576944Y-13608622D02*
X10567420Y-13627669D01*
X10767420Y-13713384D02*
X10767420Y-13580050D01*
X10767420Y-13599098D02*
X10776944Y-13589574D01*
X10776944Y-13589574D02*
X10795991Y-13580050D01*
X10795991Y-13580050D02*
X10824563Y-13580050D01*
X10824563Y-13580050D02*
X10843610Y-13589574D01*
X10843610Y-13589574D02*
X10853134Y-13608622D01*
X10853134Y-13608622D02*
X10853134Y-13713384D01*
X10853134Y-13608622D02*
X10862658Y-13589574D01*
X10862658Y-13589574D02*
X10881705Y-13580050D01*
X10881705Y-13580050D02*
X10910277Y-13580050D01*
X10910277Y-13580050D02*
X10929325Y-13589574D01*
X10929325Y-13589574D02*
X10938848Y-13608622D01*
X10938848Y-13608622D02*
X10938848Y-13713384D01*
X11034086Y-13713384D02*
X11034086Y-13580050D01*
X11034086Y-13599098D02*
X11043610Y-13589574D01*
X11043610Y-13589574D02*
X11062658Y-13580050D01*
X11062658Y-13580050D02*
X11091229Y-13580050D01*
X11091229Y-13580050D02*
X11110277Y-13589574D01*
X11110277Y-13589574D02*
X11119801Y-13608622D01*
X11119801Y-13608622D02*
X11119801Y-13713384D01*
X11119801Y-13608622D02*
X11129325Y-13589574D01*
X11129325Y-13589574D02*
X11148372Y-13580050D01*
X11148372Y-13580050D02*
X11176944Y-13580050D01*
X11176944Y-13580050D02*
X11195991Y-13589574D01*
X11195991Y-13589574D02*
X11205515Y-13608622D01*
X11205515Y-13608622D02*
X11205515Y-13713384D01*
X11595991Y-13503860D02*
X11424563Y-13761003D01*
X11853134Y-13513384D02*
X11872182Y-13513384D01*
X11872182Y-13513384D02*
X11891229Y-13522908D01*
X11891229Y-13522908D02*
X11900753Y-13532431D01*
X11900753Y-13532431D02*
X11910277Y-13551479D01*
X11910277Y-13551479D02*
X11919801Y-13589574D01*
X11919801Y-13589574D02*
X11919801Y-13637193D01*
X11919801Y-13637193D02*
X11910277Y-13675288D01*
X11910277Y-13675288D02*
X11900753Y-13694336D01*
X11900753Y-13694336D02*
X11891229Y-13703860D01*
X11891229Y-13703860D02*
X11872182Y-13713384D01*
X11872182Y-13713384D02*
X11853134Y-13713384D01*
X11853134Y-13713384D02*
X11834086Y-13703860D01*
X11834086Y-13703860D02*
X11824563Y-13694336D01*
X11824563Y-13694336D02*
X11815039Y-13675288D01*
X11815039Y-13675288D02*
X11805515Y-13637193D01*
X11805515Y-13637193D02*
X11805515Y-13589574D01*
X11805515Y-13589574D02*
X11815039Y-13551479D01*
X11815039Y-13551479D02*
X11824563Y-13532431D01*
X11824563Y-13532431D02*
X11834086Y-13522908D01*
X11834086Y-13522908D02*
X11853134Y-13513384D01*
X12005515Y-13694336D02*
X12015039Y-13703860D01*
X12015039Y-13703860D02*
X12005515Y-13713384D01*
X12005515Y-13713384D02*
X11995991Y-13703860D01*
X11995991Y-13703860D02*
X12005515Y-13694336D01*
X12005515Y-13694336D02*
X12005515Y-13713384D01*
X12138848Y-13513384D02*
X12157896Y-13513384D01*
X12157896Y-13513384D02*
X12176944Y-13522908D01*
X12176944Y-13522908D02*
X12186467Y-13532431D01*
X12186467Y-13532431D02*
X12195991Y-13551479D01*
X12195991Y-13551479D02*
X12205515Y-13589574D01*
X12205515Y-13589574D02*
X12205515Y-13637193D01*
X12205515Y-13637193D02*
X12195991Y-13675288D01*
X12195991Y-13675288D02*
X12186467Y-13694336D01*
X12186467Y-13694336D02*
X12176944Y-13703860D01*
X12176944Y-13703860D02*
X12157896Y-13713384D01*
X12157896Y-13713384D02*
X12138848Y-13713384D01*
X12138848Y-13713384D02*
X12119801Y-13703860D01*
X12119801Y-13703860D02*
X12110277Y-13694336D01*
X12110277Y-13694336D02*
X12100753Y-13675288D01*
X12100753Y-13675288D02*
X12091229Y-13637193D01*
X12091229Y-13637193D02*
X12091229Y-13589574D01*
X12091229Y-13589574D02*
X12100753Y-13551479D01*
X12100753Y-13551479D02*
X12110277Y-13532431D01*
X12110277Y-13532431D02*
X12119801Y-13522908D01*
X12119801Y-13522908D02*
X12138848Y-13513384D01*
X12376944Y-13580050D02*
X12376944Y-13713384D01*
X12329325Y-13503860D02*
X12281706Y-13646717D01*
X12281706Y-13646717D02*
X12405515Y-13646717D01*
X12519801Y-13513384D02*
X12538848Y-13513384D01*
X12538848Y-13513384D02*
X12557896Y-13522908D01*
X12557896Y-13522908D02*
X12567420Y-13532431D01*
X12567420Y-13532431D02*
X12576944Y-13551479D01*
X12576944Y-13551479D02*
X12586467Y-13589574D01*
X12586467Y-13589574D02*
X12586467Y-13637193D01*
X12586467Y-13637193D02*
X12576944Y-13675288D01*
X12576944Y-13675288D02*
X12567420Y-13694336D01*
X12567420Y-13694336D02*
X12557896Y-13703860D01*
X12557896Y-13703860D02*
X12538848Y-13713384D01*
X12538848Y-13713384D02*
X12519801Y-13713384D01*
X12519801Y-13713384D02*
X12500753Y-13703860D01*
X12500753Y-13703860D02*
X12491229Y-13694336D01*
X12491229Y-13694336D02*
X12481706Y-13675288D01*
X12481706Y-13675288D02*
X12472182Y-13637193D01*
X12472182Y-13637193D02*
X12472182Y-13589574D01*
X12472182Y-13589574D02*
X12481706Y-13551479D01*
X12481706Y-13551479D02*
X12491229Y-13532431D01*
X12491229Y-13532431D02*
X12500753Y-13522908D01*
X12500753Y-13522908D02*
X12519801Y-13513384D01*
X12710277Y-13513384D02*
X12729325Y-13513384D01*
X12729325Y-13513384D02*
X12748372Y-13522908D01*
X12748372Y-13522908D02*
X12757896Y-13532431D01*
X12757896Y-13532431D02*
X12767420Y-13551479D01*
X12767420Y-13551479D02*
X12776944Y-13589574D01*
X12776944Y-13589574D02*
X12776944Y-13637193D01*
X12776944Y-13637193D02*
X12767420Y-13675288D01*
X12767420Y-13675288D02*
X12757896Y-13694336D01*
X12757896Y-13694336D02*
X12748372Y-13703860D01*
X12748372Y-13703860D02*
X12729325Y-13713384D01*
X12729325Y-13713384D02*
X12710277Y-13713384D01*
X12710277Y-13713384D02*
X12691229Y-13703860D01*
X12691229Y-13703860D02*
X12681706Y-13694336D01*
X12681706Y-13694336D02*
X12672182Y-13675288D01*
X12672182Y-13675288D02*
X12662658Y-13637193D01*
X12662658Y-13637193D02*
X12662658Y-13589574D01*
X12662658Y-13589574D02*
X12672182Y-13551479D01*
X12672182Y-13551479D02*
X12681706Y-13532431D01*
X12681706Y-13532431D02*
X12691229Y-13522908D01*
X12691229Y-13522908D02*
X12710277Y-13513384D01*
X12853134Y-13513384D02*
X12853134Y-13551479D01*
X12929325Y-13513384D02*
X12929325Y-13551479D01*
X13224563Y-13789574D02*
X13215039Y-13780050D01*
X13215039Y-13780050D02*
X13195991Y-13751479D01*
X13195991Y-13751479D02*
X13186468Y-13732431D01*
X13186468Y-13732431D02*
X13176944Y-13703860D01*
X13176944Y-13703860D02*
X13167420Y-13656241D01*
X13167420Y-13656241D02*
X13167420Y-13618146D01*
X13167420Y-13618146D02*
X13176944Y-13570527D01*
X13176944Y-13570527D02*
X13186468Y-13541955D01*
X13186468Y-13541955D02*
X13195991Y-13522908D01*
X13195991Y-13522908D02*
X13215039Y-13494336D01*
X13215039Y-13494336D02*
X13224563Y-13484812D01*
X13386468Y-13513384D02*
X13348372Y-13513384D01*
X13348372Y-13513384D02*
X13329325Y-13522908D01*
X13329325Y-13522908D02*
X13319801Y-13532431D01*
X13319801Y-13532431D02*
X13300753Y-13561003D01*
X13300753Y-13561003D02*
X13291229Y-13599098D01*
X13291229Y-13599098D02*
X13291229Y-13675288D01*
X13291229Y-13675288D02*
X13300753Y-13694336D01*
X13300753Y-13694336D02*
X13310277Y-13703860D01*
X13310277Y-13703860D02*
X13329325Y-13713384D01*
X13329325Y-13713384D02*
X13367420Y-13713384D01*
X13367420Y-13713384D02*
X13386468Y-13703860D01*
X13386468Y-13703860D02*
X13395991Y-13694336D01*
X13395991Y-13694336D02*
X13405515Y-13675288D01*
X13405515Y-13675288D02*
X13405515Y-13627669D01*
X13405515Y-13627669D02*
X13395991Y-13608622D01*
X13395991Y-13608622D02*
X13386468Y-13599098D01*
X13386468Y-13599098D02*
X13367420Y-13589574D01*
X13367420Y-13589574D02*
X13329325Y-13589574D01*
X13329325Y-13589574D02*
X13310277Y-13599098D01*
X13310277Y-13599098D02*
X13300753Y-13608622D01*
X13300753Y-13608622D02*
X13291229Y-13627669D01*
X13500753Y-13713384D02*
X13538848Y-13713384D01*
X13538848Y-13713384D02*
X13557896Y-13703860D01*
X13557896Y-13703860D02*
X13567420Y-13694336D01*
X13567420Y-13694336D02*
X13586468Y-13665765D01*
X13586468Y-13665765D02*
X13595991Y-13627669D01*
X13595991Y-13627669D02*
X13595991Y-13551479D01*
X13595991Y-13551479D02*
X13586468Y-13532431D01*
X13586468Y-13532431D02*
X13576944Y-13522908D01*
X13576944Y-13522908D02*
X13557896Y-13513384D01*
X13557896Y-13513384D02*
X13519801Y-13513384D01*
X13519801Y-13513384D02*
X13500753Y-13522908D01*
X13500753Y-13522908D02*
X13491229Y-13532431D01*
X13491229Y-13532431D02*
X13481706Y-13551479D01*
X13481706Y-13551479D02*
X13481706Y-13599098D01*
X13481706Y-13599098D02*
X13491229Y-13618146D01*
X13491229Y-13618146D02*
X13500753Y-13627669D01*
X13500753Y-13627669D02*
X13519801Y-13637193D01*
X13519801Y-13637193D02*
X13557896Y-13637193D01*
X13557896Y-13637193D02*
X13576944Y-13627669D01*
X13576944Y-13627669D02*
X13586468Y-13618146D01*
X13586468Y-13618146D02*
X13595991Y-13599098D01*
X13834087Y-13713384D02*
X13834087Y-13513384D01*
X13919801Y-13713384D02*
X13919801Y-13608622D01*
X13919801Y-13608622D02*
X13910277Y-13589574D01*
X13910277Y-13589574D02*
X13891230Y-13580050D01*
X13891230Y-13580050D02*
X13862658Y-13580050D01*
X13862658Y-13580050D02*
X13843610Y-13589574D01*
X13843610Y-13589574D02*
X13834087Y-13599098D01*
X14043610Y-13713384D02*
X14024563Y-13703860D01*
X14024563Y-13703860D02*
X14015039Y-13694336D01*
X14015039Y-13694336D02*
X14005515Y-13675288D01*
X14005515Y-13675288D02*
X14005515Y-13618146D01*
X14005515Y-13618146D02*
X14015039Y-13599098D01*
X14015039Y-13599098D02*
X14024563Y-13589574D01*
X14024563Y-13589574D02*
X14043610Y-13580050D01*
X14043610Y-13580050D02*
X14072182Y-13580050D01*
X14072182Y-13580050D02*
X14091230Y-13589574D01*
X14091230Y-13589574D02*
X14100753Y-13599098D01*
X14100753Y-13599098D02*
X14110277Y-13618146D01*
X14110277Y-13618146D02*
X14110277Y-13675288D01*
X14110277Y-13675288D02*
X14100753Y-13694336D01*
X14100753Y-13694336D02*
X14091230Y-13703860D01*
X14091230Y-13703860D02*
X14072182Y-13713384D01*
X14072182Y-13713384D02*
X14043610Y-13713384D01*
X14224563Y-13713384D02*
X14205515Y-13703860D01*
X14205515Y-13703860D02*
X14195991Y-13684812D01*
X14195991Y-13684812D02*
X14195991Y-13513384D01*
X14376944Y-13703860D02*
X14357896Y-13713384D01*
X14357896Y-13713384D02*
X14319801Y-13713384D01*
X14319801Y-13713384D02*
X14300753Y-13703860D01*
X14300753Y-13703860D02*
X14291230Y-13684812D01*
X14291230Y-13684812D02*
X14291230Y-13608622D01*
X14291230Y-13608622D02*
X14300753Y-13589574D01*
X14300753Y-13589574D02*
X14319801Y-13580050D01*
X14319801Y-13580050D02*
X14357896Y-13580050D01*
X14357896Y-13580050D02*
X14376944Y-13589574D01*
X14376944Y-13589574D02*
X14386468Y-13608622D01*
X14386468Y-13608622D02*
X14386468Y-13627669D01*
X14386468Y-13627669D02*
X14291230Y-13646717D01*
X14462658Y-13703860D02*
X14481706Y-13713384D01*
X14481706Y-13713384D02*
X14519801Y-13713384D01*
X14519801Y-13713384D02*
X14538849Y-13703860D01*
X14538849Y-13703860D02*
X14548372Y-13684812D01*
X14548372Y-13684812D02*
X14548372Y-13675288D01*
X14548372Y-13675288D02*
X14538849Y-13656241D01*
X14538849Y-13656241D02*
X14519801Y-13646717D01*
X14519801Y-13646717D02*
X14491230Y-13646717D01*
X14491230Y-13646717D02*
X14472182Y-13637193D01*
X14472182Y-13637193D02*
X14462658Y-13618146D01*
X14462658Y-13618146D02*
X14462658Y-13608622D01*
X14462658Y-13608622D02*
X14472182Y-13589574D01*
X14472182Y-13589574D02*
X14491230Y-13580050D01*
X14491230Y-13580050D02*
X14519801Y-13580050D01*
X14519801Y-13580050D02*
X14538849Y-13589574D01*
X14615039Y-13789574D02*
X14624563Y-13780050D01*
X14624563Y-13780050D02*
X14643611Y-13751479D01*
X14643611Y-13751479D02*
X14653134Y-13732431D01*
X14653134Y-13732431D02*
X14662658Y-13703860D01*
X14662658Y-13703860D02*
X14672182Y-13656241D01*
X14672182Y-13656241D02*
X14672182Y-13618146D01*
X14672182Y-13618146D02*
X14662658Y-13570527D01*
X14662658Y-13570527D02*
X14653134Y-13541955D01*
X14653134Y-13541955D02*
X14643611Y-13522908D01*
X14643611Y-13522908D02*
X14624563Y-13494336D01*
X14624563Y-13494336D02*
X14615039Y-13484812D01*
M02*
