%TF.GenerationSoftware,KiCad,Pcbnew,7.0.11+dfsg-1build4*%
%TF.CreationDate,2025-05-03T14:01:42-04:00*%
%TF.ProjectId,Peripherals Board,50657269-7068-4657-9261-6c7320426f61,rev?*%
%TF.SameCoordinates,Original*%
%TF.FileFunction,Legend,Top*%
%TF.FilePolarity,Positive*%
%FSLAX46Y46*%
G04 Gerber Fmt 4.6, Leading zero omitted, Abs format (unit mm)*
G04 Created by KiCad (PCBNEW 7.0.11+dfsg-1build4) date 2025-05-03 14:01:42*
%MOMM*%
%LPD*%
G01*
G04 APERTURE LIST*
%ADD10C,0.100000*%
G04 APERTURE END LIST*
D10*
X177040265Y-115918704D02*
X177516455Y-115918704D01*
X176945027Y-116204419D02*
X177278360Y-115204419D01*
X177278360Y-115204419D02*
X177611693Y-116204419D01*
X132383789Y-115537752D02*
X131621884Y-115823466D01*
X131621884Y-115823466D02*
X132383789Y-116109180D01*
X140623027Y-115204419D02*
X140956360Y-116204419D01*
X140956360Y-116204419D02*
X141289693Y-115204419D01*
X149767027Y-115807657D02*
X149957503Y-115664800D01*
X149957503Y-115664800D02*
X150147979Y-115807657D01*
X168531217Y-115680609D02*
X168674074Y-115728228D01*
X168674074Y-115728228D02*
X168721693Y-115775847D01*
X168721693Y-115775847D02*
X168769312Y-115871085D01*
X168769312Y-115871085D02*
X168769312Y-116013942D01*
X168769312Y-116013942D02*
X168721693Y-116109180D01*
X168721693Y-116109180D02*
X168674074Y-116156800D01*
X168674074Y-116156800D02*
X168578836Y-116204419D01*
X168578836Y-116204419D02*
X168197884Y-116204419D01*
X168197884Y-116204419D02*
X168197884Y-115204419D01*
X168197884Y-115204419D02*
X168531217Y-115204419D01*
X168531217Y-115204419D02*
X168626455Y-115252038D01*
X168626455Y-115252038D02*
X168674074Y-115299657D01*
X168674074Y-115299657D02*
X168721693Y-115394895D01*
X168721693Y-115394895D02*
X168721693Y-115490133D01*
X168721693Y-115490133D02*
X168674074Y-115585371D01*
X168674074Y-115585371D02*
X168626455Y-115632990D01*
X168626455Y-115632990D02*
X168531217Y-115680609D01*
X168531217Y-115680609D02*
X168197884Y-115680609D01*
X159053884Y-115537752D02*
X159815789Y-115823466D01*
X159815789Y-115823466D02*
X159053884Y-116109180D01*
M02*
