%TF.GenerationSoftware,KiCad,Pcbnew,9.0.6*%
%TF.CreationDate,2026-02-18T16:10:23-05:00*%
%TF.ProjectId,Peripherals Board,50657269-7068-4657-9261-6c7320426f61,rev?*%
%TF.SameCoordinates,Original*%
%TF.FileFunction,Soldermask,Bot*%
%TF.FilePolarity,Negative*%
%FSLAX46Y46*%
G04 Gerber Fmt 4.6, Leading zero omitted, Abs format (unit mm)*
G04 Created by KiCad (PCBNEW 9.0.6) date 2026-02-18 16:10:23*
%MOMM*%
%LPD*%
G01*
G04 APERTURE LIST*
%ADD10O,1.727200X1.727200*%
%ADD11R,1.727200X1.727200*%
G04 APERTURE END LIST*
D10*
%TO.C,*%
X130120000Y-124356000D03*
%TD*%
%TO.C,*%
X175840000Y-124356000D03*
%TD*%
%TO.C,*%
X166696000Y-117856000D03*
%TD*%
%TO.C,*%
X148408000Y-117856000D03*
%TD*%
%TO.C,*%
X150876000Y-70358000D03*
%TD*%
D11*
%TO.C,*%
X108990000Y-79040000D03*
%TD*%
D10*
%TO.C,*%
X139264000Y-124356000D03*
%TD*%
D11*
%TO.C,*%
X158496000Y-70358000D03*
%TD*%
D10*
%TO.C,*%
X153416000Y-70358000D03*
%TD*%
%TO.C,*%
X106450000Y-79040000D03*
%TD*%
%TO.C,*%
X175840000Y-117856000D03*
%TD*%
%TO.C,*%
X166696000Y-124356000D03*
%TD*%
%TO.C,*%
X134620000Y-117856000D03*
%TD*%
%TO.C,*%
X155956000Y-70358000D03*
%TD*%
%TO.C,*%
X103910000Y-79040000D03*
%TD*%
%TO.C,*%
X143256000Y-70358000D03*
%TD*%
%TO.C,*%
X148408000Y-124356000D03*
%TD*%
%TO.C,*%
X171196000Y-117856000D03*
%TD*%
%TO.C,*%
X139264000Y-117856000D03*
%TD*%
%TO.C,*%
X171196000Y-124356000D03*
%TD*%
%TO.C,*%
X180340000Y-117856000D03*
%TD*%
%TO.C,*%
X148336000Y-70358000D03*
%TD*%
%TO.C,*%
X134620000Y-124356000D03*
%TD*%
%TO.C,*%
X162052000Y-124356000D03*
%TD*%
%TO.C,*%
X130120000Y-117856000D03*
%TD*%
%TO.C,*%
X152908000Y-117856000D03*
%TD*%
%TO.C,*%
X157552000Y-117856000D03*
%TD*%
%TO.C,*%
X162052000Y-117856000D03*
%TD*%
%TO.C,*%
X101370000Y-79040000D03*
%TD*%
%TO.C,*%
X98830000Y-79040000D03*
%TD*%
%TO.C,*%
X143764000Y-117856000D03*
%TD*%
%TO.C,*%
X143764000Y-124356000D03*
%TD*%
%TO.C,*%
X157552000Y-124356000D03*
%TD*%
%TO.C,*%
X180340000Y-124356000D03*
%TD*%
%TO.C,*%
X96290000Y-79040000D03*
%TD*%
%TO.C,*%
X152908000Y-124356000D03*
%TD*%
%TO.C,*%
X145796000Y-70358000D03*
%TD*%
%TO.C, *%
X152400000Y-127000000D03*
X154940000Y-127000000D03*
X167640000Y-127000000D03*
X170180000Y-127000000D03*
X172720000Y-127000000D03*
X175260000Y-127000000D03*
X177800000Y-127000000D03*
X180340000Y-127000000D03*
X140716000Y-78740000D03*
X144780000Y-127000000D03*
X180340000Y-78740000D03*
X177800000Y-78740000D03*
X175260000Y-78740000D03*
X172720000Y-78740000D03*
X170180000Y-78740000D03*
X167640000Y-78740000D03*
X165100000Y-78740000D03*
X162560000Y-78740000D03*
X158496000Y-78740000D03*
X155956000Y-78740000D03*
X153416000Y-78740000D03*
X150876000Y-78740000D03*
X148336000Y-78740000D03*
X145796000Y-78740000D03*
D11*
X143256000Y-78740000D03*
X157480000Y-127000000D03*
X160020000Y-127000000D03*
D10*
X147320000Y-127000000D03*
X149860000Y-127000000D03*
X135636000Y-78740000D03*
X138176000Y-78740000D03*
X162560000Y-127000000D03*
%TD*%
M02*
