M48
; DRILL file {KiCad 9.0.6} date 2026-02-18T16:10:20-0500
; FORMAT={-:-/ absolute / metric / decimal}
; #@! TF.CreationDate,2026-02-18T16:10:20-05:00
; #@! TF.GenerationSoftware,Kicad,Pcbnew,9.0.6
; #@! TF.FileFunction,Plated,1,2,PTH
FMAT,2
METRIC
; #@! TA.AperFunction,Plated,PTH,ComponentDrill
T1C1.016
%
G90
G05
T1
X96.29Y-79.04
X98.83Y-79.04
X101.37Y-79.04
X103.91Y-79.04
X106.45Y-79.04
X108.99Y-79.04
X130.12Y-117.856
X130.12Y-124.356
X134.62Y-117.856
X134.62Y-124.356
X135.636Y-78.74
X138.176Y-78.74
X139.264Y-117.856
X139.264Y-124.356
X140.716Y-78.74
X143.256Y-70.358
X143.256Y-78.74
X143.764Y-117.856
X143.764Y-124.356
X144.78Y-127.0
X145.796Y-70.358
X145.796Y-78.74
X147.32Y-127.0
X148.336Y-70.358
X148.336Y-78.74
X148.408Y-117.856
X148.408Y-124.356
X149.86Y-127.0
X150.876Y-70.358
X150.876Y-78.74
X152.4Y-127.0
X152.908Y-117.856
X152.908Y-124.356
X153.416Y-70.358
X153.416Y-78.74
X154.94Y-127.0
X155.956Y-70.358
X155.956Y-78.74
X157.48Y-127.0
X157.552Y-117.856
X157.552Y-124.356
X158.496Y-70.358
X158.496Y-78.74
X160.02Y-127.0
X162.052Y-117.856
X162.052Y-124.356
X162.56Y-78.74
X162.56Y-127.0
X165.1Y-78.74
X166.696Y-117.856
X166.696Y-124.356
X167.64Y-78.74
X167.64Y-127.0
X170.18Y-78.74
X170.18Y-127.0
X171.196Y-117.856
X171.196Y-124.356
X172.72Y-78.74
X172.72Y-127.0
X175.26Y-78.74
X175.26Y-127.0
X175.84Y-117.856
X175.84Y-124.356
X177.8Y-78.74
X177.8Y-127.0
X180.34Y-78.74
X180.34Y-117.856
X180.34Y-124.356
X180.34Y-127.0
M30
