%TF.GenerationSoftware,KiCad,Pcbnew,9.0.6*%
%TF.CreationDate,2026-02-18T16:10:23-05:00*%
%TF.ProjectId,Peripherals Board,50657269-7068-4657-9261-6c7320426f61,rev?*%
%TF.SameCoordinates,Original*%
%TF.FileFunction,Legend,Top*%
%TF.FilePolarity,Positive*%
%FSLAX46Y46*%
G04 Gerber Fmt 4.6, Leading zero omitted, Abs format (unit mm)*
G04 Created by KiCad (PCBNEW 9.0.6) date 2026-02-18 16:10:23*
%MOMM*%
%LPD*%
G01*
G04 APERTURE LIST*
%ADD10C,0.300000*%
%ADD11C,0.100000*%
G04 APERTURE END LIST*
D10*
X95354510Y-72350828D02*
X95354510Y-70850828D01*
X95354510Y-70850828D02*
X95854510Y-71922257D01*
X95854510Y-71922257D02*
X96354510Y-70850828D01*
X96354510Y-70850828D02*
X96354510Y-72350828D01*
X96854511Y-70850828D02*
X97711654Y-70850828D01*
X97283082Y-72350828D02*
X97283082Y-70850828D01*
X97997368Y-70850828D02*
X98854511Y-70850828D01*
X98425939Y-72350828D02*
X98425939Y-70850828D01*
X100997367Y-71565114D02*
X101211653Y-71636542D01*
X101211653Y-71636542D02*
X101283082Y-71707971D01*
X101283082Y-71707971D02*
X101354510Y-71850828D01*
X101354510Y-71850828D02*
X101354510Y-72065114D01*
X101354510Y-72065114D02*
X101283082Y-72207971D01*
X101283082Y-72207971D02*
X101211653Y-72279400D01*
X101211653Y-72279400D02*
X101068796Y-72350828D01*
X101068796Y-72350828D02*
X100497367Y-72350828D01*
X100497367Y-72350828D02*
X100497367Y-70850828D01*
X100497367Y-70850828D02*
X100997367Y-70850828D01*
X100997367Y-70850828D02*
X101140225Y-70922257D01*
X101140225Y-70922257D02*
X101211653Y-70993685D01*
X101211653Y-70993685D02*
X101283082Y-71136542D01*
X101283082Y-71136542D02*
X101283082Y-71279400D01*
X101283082Y-71279400D02*
X101211653Y-71422257D01*
X101211653Y-71422257D02*
X101140225Y-71493685D01*
X101140225Y-71493685D02*
X100997367Y-71565114D01*
X100997367Y-71565114D02*
X100497367Y-71565114D01*
X101997367Y-72350828D02*
X101997367Y-71350828D01*
X101997367Y-71636542D02*
X102068796Y-71493685D01*
X102068796Y-71493685D02*
X102140225Y-71422257D01*
X102140225Y-71422257D02*
X102283082Y-71350828D01*
X102283082Y-71350828D02*
X102425939Y-71350828D01*
X103497367Y-72279400D02*
X103354510Y-72350828D01*
X103354510Y-72350828D02*
X103068796Y-72350828D01*
X103068796Y-72350828D02*
X102925938Y-72279400D01*
X102925938Y-72279400D02*
X102854510Y-72136542D01*
X102854510Y-72136542D02*
X102854510Y-71565114D01*
X102854510Y-71565114D02*
X102925938Y-71422257D01*
X102925938Y-71422257D02*
X103068796Y-71350828D01*
X103068796Y-71350828D02*
X103354510Y-71350828D01*
X103354510Y-71350828D02*
X103497367Y-71422257D01*
X103497367Y-71422257D02*
X103568796Y-71565114D01*
X103568796Y-71565114D02*
X103568796Y-71707971D01*
X103568796Y-71707971D02*
X102854510Y-71850828D01*
X104854510Y-72350828D02*
X104854510Y-71565114D01*
X104854510Y-71565114D02*
X104783081Y-71422257D01*
X104783081Y-71422257D02*
X104640224Y-71350828D01*
X104640224Y-71350828D02*
X104354510Y-71350828D01*
X104354510Y-71350828D02*
X104211652Y-71422257D01*
X104854510Y-72279400D02*
X104711652Y-72350828D01*
X104711652Y-72350828D02*
X104354510Y-72350828D01*
X104354510Y-72350828D02*
X104211652Y-72279400D01*
X104211652Y-72279400D02*
X104140224Y-72136542D01*
X104140224Y-72136542D02*
X104140224Y-71993685D01*
X104140224Y-71993685D02*
X104211652Y-71850828D01*
X104211652Y-71850828D02*
X104354510Y-71779400D01*
X104354510Y-71779400D02*
X104711652Y-71779400D01*
X104711652Y-71779400D02*
X104854510Y-71707971D01*
X105568795Y-72350828D02*
X105568795Y-70850828D01*
X105711653Y-71779400D02*
X106140224Y-72350828D01*
X106140224Y-71350828D02*
X105568795Y-71922257D01*
X106997367Y-72350828D02*
X106854510Y-72279400D01*
X106854510Y-72279400D02*
X106783081Y-72207971D01*
X106783081Y-72207971D02*
X106711653Y-72065114D01*
X106711653Y-72065114D02*
X106711653Y-71636542D01*
X106711653Y-71636542D02*
X106783081Y-71493685D01*
X106783081Y-71493685D02*
X106854510Y-71422257D01*
X106854510Y-71422257D02*
X106997367Y-71350828D01*
X106997367Y-71350828D02*
X107211653Y-71350828D01*
X107211653Y-71350828D02*
X107354510Y-71422257D01*
X107354510Y-71422257D02*
X107425939Y-71493685D01*
X107425939Y-71493685D02*
X107497367Y-71636542D01*
X107497367Y-71636542D02*
X107497367Y-72065114D01*
X107497367Y-72065114D02*
X107425939Y-72207971D01*
X107425939Y-72207971D02*
X107354510Y-72279400D01*
X107354510Y-72279400D02*
X107211653Y-72350828D01*
X107211653Y-72350828D02*
X106997367Y-72350828D01*
X108783082Y-71350828D02*
X108783082Y-72350828D01*
X108140224Y-71350828D02*
X108140224Y-72136542D01*
X108140224Y-72136542D02*
X108211653Y-72279400D01*
X108211653Y-72279400D02*
X108354510Y-72350828D01*
X108354510Y-72350828D02*
X108568796Y-72350828D01*
X108568796Y-72350828D02*
X108711653Y-72279400D01*
X108711653Y-72279400D02*
X108783082Y-72207971D01*
X109283082Y-71350828D02*
X109854510Y-71350828D01*
X109497367Y-70850828D02*
X109497367Y-72136542D01*
X109497367Y-72136542D02*
X109568796Y-72279400D01*
X109568796Y-72279400D02*
X109711653Y-72350828D01*
X109711653Y-72350828D02*
X109854510Y-72350828D01*
X111997367Y-71565114D02*
X112211653Y-71636542D01*
X112211653Y-71636542D02*
X112283082Y-71707971D01*
X112283082Y-71707971D02*
X112354510Y-71850828D01*
X112354510Y-71850828D02*
X112354510Y-72065114D01*
X112354510Y-72065114D02*
X112283082Y-72207971D01*
X112283082Y-72207971D02*
X112211653Y-72279400D01*
X112211653Y-72279400D02*
X112068796Y-72350828D01*
X112068796Y-72350828D02*
X111497367Y-72350828D01*
X111497367Y-72350828D02*
X111497367Y-70850828D01*
X111497367Y-70850828D02*
X111997367Y-70850828D01*
X111997367Y-70850828D02*
X112140225Y-70922257D01*
X112140225Y-70922257D02*
X112211653Y-70993685D01*
X112211653Y-70993685D02*
X112283082Y-71136542D01*
X112283082Y-71136542D02*
X112283082Y-71279400D01*
X112283082Y-71279400D02*
X112211653Y-71422257D01*
X112211653Y-71422257D02*
X112140225Y-71493685D01*
X112140225Y-71493685D02*
X111997367Y-71565114D01*
X111997367Y-71565114D02*
X111497367Y-71565114D01*
X113211653Y-72350828D02*
X113068796Y-72279400D01*
X113068796Y-72279400D02*
X112997367Y-72207971D01*
X112997367Y-72207971D02*
X112925939Y-72065114D01*
X112925939Y-72065114D02*
X112925939Y-71636542D01*
X112925939Y-71636542D02*
X112997367Y-71493685D01*
X112997367Y-71493685D02*
X113068796Y-71422257D01*
X113068796Y-71422257D02*
X113211653Y-71350828D01*
X113211653Y-71350828D02*
X113425939Y-71350828D01*
X113425939Y-71350828D02*
X113568796Y-71422257D01*
X113568796Y-71422257D02*
X113640225Y-71493685D01*
X113640225Y-71493685D02*
X113711653Y-71636542D01*
X113711653Y-71636542D02*
X113711653Y-72065114D01*
X113711653Y-72065114D02*
X113640225Y-72207971D01*
X113640225Y-72207971D02*
X113568796Y-72279400D01*
X113568796Y-72279400D02*
X113425939Y-72350828D01*
X113425939Y-72350828D02*
X113211653Y-72350828D01*
X114997368Y-72350828D02*
X114997368Y-71565114D01*
X114997368Y-71565114D02*
X114925939Y-71422257D01*
X114925939Y-71422257D02*
X114783082Y-71350828D01*
X114783082Y-71350828D02*
X114497368Y-71350828D01*
X114497368Y-71350828D02*
X114354510Y-71422257D01*
X114997368Y-72279400D02*
X114854510Y-72350828D01*
X114854510Y-72350828D02*
X114497368Y-72350828D01*
X114497368Y-72350828D02*
X114354510Y-72279400D01*
X114354510Y-72279400D02*
X114283082Y-72136542D01*
X114283082Y-72136542D02*
X114283082Y-71993685D01*
X114283082Y-71993685D02*
X114354510Y-71850828D01*
X114354510Y-71850828D02*
X114497368Y-71779400D01*
X114497368Y-71779400D02*
X114854510Y-71779400D01*
X114854510Y-71779400D02*
X114997368Y-71707971D01*
X115711653Y-72350828D02*
X115711653Y-71350828D01*
X115711653Y-71636542D02*
X115783082Y-71493685D01*
X115783082Y-71493685D02*
X115854511Y-71422257D01*
X115854511Y-71422257D02*
X115997368Y-71350828D01*
X115997368Y-71350828D02*
X116140225Y-71350828D01*
X117283082Y-72350828D02*
X117283082Y-70850828D01*
X117283082Y-72279400D02*
X117140224Y-72350828D01*
X117140224Y-72350828D02*
X116854510Y-72350828D01*
X116854510Y-72350828D02*
X116711653Y-72279400D01*
X116711653Y-72279400D02*
X116640224Y-72207971D01*
X116640224Y-72207971D02*
X116568796Y-72065114D01*
X116568796Y-72065114D02*
X116568796Y-71636542D01*
X116568796Y-71636542D02*
X116640224Y-71493685D01*
X116640224Y-71493685D02*
X116711653Y-71422257D01*
X116711653Y-71422257D02*
X116854510Y-71350828D01*
X116854510Y-71350828D02*
X117140224Y-71350828D01*
X117140224Y-71350828D02*
X117283082Y-71422257D01*
X119425939Y-70850828D02*
X119568796Y-70850828D01*
X119568796Y-70850828D02*
X119711653Y-70922257D01*
X119711653Y-70922257D02*
X119783082Y-70993685D01*
X119783082Y-70993685D02*
X119854510Y-71136542D01*
X119854510Y-71136542D02*
X119925939Y-71422257D01*
X119925939Y-71422257D02*
X119925939Y-71779400D01*
X119925939Y-71779400D02*
X119854510Y-72065114D01*
X119854510Y-72065114D02*
X119783082Y-72207971D01*
X119783082Y-72207971D02*
X119711653Y-72279400D01*
X119711653Y-72279400D02*
X119568796Y-72350828D01*
X119568796Y-72350828D02*
X119425939Y-72350828D01*
X119425939Y-72350828D02*
X119283082Y-72279400D01*
X119283082Y-72279400D02*
X119211653Y-72207971D01*
X119211653Y-72207971D02*
X119140224Y-72065114D01*
X119140224Y-72065114D02*
X119068796Y-71779400D01*
X119068796Y-71779400D02*
X119068796Y-71422257D01*
X119068796Y-71422257D02*
X119140224Y-71136542D01*
X119140224Y-71136542D02*
X119211653Y-70993685D01*
X119211653Y-70993685D02*
X119283082Y-70922257D01*
X119283082Y-70922257D02*
X119425939Y-70850828D01*
X120568795Y-72207971D02*
X120640224Y-72279400D01*
X120640224Y-72279400D02*
X120568795Y-72350828D01*
X120568795Y-72350828D02*
X120497367Y-72279400D01*
X120497367Y-72279400D02*
X120568795Y-72207971D01*
X120568795Y-72207971D02*
X120568795Y-72350828D01*
X121925939Y-71350828D02*
X121925939Y-72350828D01*
X121568796Y-70779400D02*
X121211653Y-71850828D01*
X121211653Y-71850828D02*
X122140224Y-71850828D01*
D11*
X178126265Y-115956704D02*
X178602455Y-115956704D01*
X178031027Y-116242419D02*
X178364360Y-115242419D01*
X178364360Y-115242419D02*
X178697693Y-116242419D01*
X133215789Y-115575752D02*
X132453884Y-115861466D01*
X132453884Y-115861466D02*
X133215789Y-116147180D01*
X141455027Y-115242419D02*
X141788360Y-116242419D01*
X141788360Y-116242419D02*
X142121693Y-115242419D01*
X150599027Y-115337657D02*
X150789503Y-115194800D01*
X150789503Y-115194800D02*
X150979979Y-115337657D01*
X169363217Y-115718609D02*
X169506074Y-115766228D01*
X169506074Y-115766228D02*
X169553693Y-115813847D01*
X169553693Y-115813847D02*
X169601312Y-115909085D01*
X169601312Y-115909085D02*
X169601312Y-116051942D01*
X169601312Y-116051942D02*
X169553693Y-116147180D01*
X169553693Y-116147180D02*
X169506074Y-116194800D01*
X169506074Y-116194800D02*
X169410836Y-116242419D01*
X169410836Y-116242419D02*
X169029884Y-116242419D01*
X169029884Y-116242419D02*
X169029884Y-115242419D01*
X169029884Y-115242419D02*
X169363217Y-115242419D01*
X169363217Y-115242419D02*
X169458455Y-115290038D01*
X169458455Y-115290038D02*
X169506074Y-115337657D01*
X169506074Y-115337657D02*
X169553693Y-115432895D01*
X169553693Y-115432895D02*
X169553693Y-115528133D01*
X169553693Y-115528133D02*
X169506074Y-115623371D01*
X169506074Y-115623371D02*
X169458455Y-115670990D01*
X169458455Y-115670990D02*
X169363217Y-115718609D01*
X169363217Y-115718609D02*
X169029884Y-115718609D01*
X159885884Y-115575752D02*
X160647789Y-115861466D01*
X160647789Y-115861466D02*
X159885884Y-116147180D01*
M02*
