%TF.GenerationSoftware,KiCad,Pcbnew,9.0.6*%
%TF.CreationDate,2026-02-18T16:10:23-05:00*%
%TF.ProjectId,Peripherals Board,50657269-7068-4657-9261-6c7320426f61,rev?*%
%TF.SameCoordinates,Original*%
%TF.FileFunction,Copper,L1,Top*%
%TF.FilePolarity,Positive*%
%FSLAX46Y46*%
G04 Gerber Fmt 4.6, Leading zero omitted, Abs format (unit mm)*
G04 Created by KiCad (PCBNEW 9.0.6) date 2026-02-18 16:10:23*
%MOMM*%
%LPD*%
G01*
G04 APERTURE LIST*
%TA.AperFunction,ComponentPad*%
%ADD10O,1.727200X1.727200*%
%TD*%
%TA.AperFunction,ComponentPad*%
%ADD11R,1.727200X1.727200*%
%TD*%
%TA.AperFunction,Conductor*%
%ADD12C,0.200000*%
%TD*%
G04 APERTURE END LIST*
D10*
%TO.P,,PB1_3*%
%TO.N,N/C*%
X130120000Y-124356000D03*
%TD*%
%TO.P,,PB6_3*%
%TO.N,N/C*%
X175840000Y-124356000D03*
%TD*%
%TO.P,,PB5_1*%
%TO.N,N/C*%
X166696000Y-117856000D03*
%TD*%
%TO.P,,PB3_1*%
%TO.N,N/C*%
X148408000Y-117856000D03*
%TD*%
%TO.P,,SDA*%
%TO.N,N/C*%
X150876000Y-70358000D03*
%TD*%
D11*
%TO.P,,GND*%
%TO.N,N/C*%
X108990000Y-79040000D03*
%TD*%
D10*
%TO.P,,PB2_3*%
%TO.N,N/C*%
X139264000Y-124356000D03*
%TD*%
D11*
%TO.P,,GND*%
%TO.N,N/C*%
X158496000Y-70358000D03*
%TD*%
D10*
%TO.P,,SCK*%
%TO.N,N/C*%
X153416000Y-70358000D03*
%TD*%
%TO.P,,5V*%
%TO.N,N/C*%
X106450000Y-79040000D03*
%TD*%
%TO.P,,PB6_1*%
%TO.N,N/C*%
X175840000Y-117856000D03*
%TD*%
%TO.P,,PB5_3*%
%TO.N,N/C*%
X166696000Y-124356000D03*
%TD*%
%TO.P,,PB1_2*%
%TO.N,N/C*%
X134620000Y-117856000D03*
%TD*%
%TO.P,,3V3*%
%TO.N,N/C*%
X155956000Y-70358000D03*
%TD*%
%TO.P,,MISO*%
%TO.N,N/C*%
X103910000Y-79040000D03*
%TD*%
%TO.P,,CS*%
%TO.N,N/C*%
X143256000Y-70358000D03*
%TD*%
%TO.P,,PB3_3*%
%TO.N,N/C*%
X148408000Y-124356000D03*
%TD*%
%TO.P,,PB5_2*%
%TO.N,N/C*%
X171196000Y-117856000D03*
%TD*%
%TO.P,,PB2_1*%
%TO.N,N/C*%
X139264000Y-117856000D03*
%TD*%
%TO.P,,PB5_4*%
%TO.N,N/C*%
X171196000Y-124356000D03*
%TD*%
%TO.P,,PB6_2*%
%TO.N,N/C*%
X180340000Y-117856000D03*
%TD*%
%TO.P,,RES*%
%TO.N,N/C*%
X148336000Y-70358000D03*
%TD*%
%TO.P,,PB1_4*%
%TO.N,N/C*%
X134620000Y-124356000D03*
%TD*%
%TO.P,,PB4_4*%
%TO.N,N/C*%
X162052000Y-124356000D03*
%TD*%
%TO.P,,PB1_1*%
%TO.N,N/C*%
X130120000Y-117856000D03*
%TD*%
%TO.P,,PB3_2*%
%TO.N,N/C*%
X152908000Y-117856000D03*
%TD*%
%TO.P,,PB4_1*%
%TO.N,N/C*%
X157552000Y-117856000D03*
%TD*%
%TO.P,,PB4_2*%
%TO.N,N/C*%
X162052000Y-117856000D03*
%TD*%
%TO.P,,MOSI*%
%TO.N,N/C*%
X101370000Y-79040000D03*
%TD*%
%TO.P,,SCK*%
%TO.N,N/C*%
X98830000Y-79040000D03*
%TD*%
%TO.P,,PB2_2*%
%TO.N,N/C*%
X143764000Y-117856000D03*
%TD*%
%TO.P,,PB2_4*%
%TO.N,N/C*%
X143764000Y-124356000D03*
%TD*%
%TO.P,,PB4_3*%
%TO.N,N/C*%
X157552000Y-124356000D03*
%TD*%
%TO.P,,PB6_4*%
%TO.N,N/C*%
X180340000Y-124356000D03*
%TD*%
%TO.P,,CS*%
%TO.N,N/C*%
X96290000Y-79040000D03*
%TD*%
%TO.P,,PB3_4*%
%TO.N,N/C*%
X152908000Y-124356000D03*
%TD*%
%TO.P,,DC*%
%TO.N,N/C*%
X145796000Y-70358000D03*
%TD*%
%TO.P, ,3V3*%
%TO.N,N/C*%
X152400000Y-127000000D03*
%TO.P, ,5V1*%
X154940000Y-127000000D03*
%TO.P, ,A0*%
X167640000Y-127000000D03*
%TO.P, ,A1*%
X170180000Y-127000000D03*
%TO.P, ,A2*%
X172720000Y-127000000D03*
%TO.P, ,A3*%
X175260000Y-127000000D03*
%TO.P, ,A4*%
X177800000Y-127000000D03*
%TO.P, ,A5*%
X180340000Y-127000000D03*
%TO.P, ,AREF*%
X140716000Y-78740000D03*
%TO.P, ,BOOT*%
X144780000Y-127000000D03*
%TO.P, ,D0*%
X180340000Y-78740000D03*
%TO.P, ,D1*%
X177800000Y-78740000D03*
%TO.P, ,D2*%
X175260000Y-78740000D03*
%TO.P, ,D3*%
X172720000Y-78740000D03*
%TO.P, ,D4*%
X170180000Y-78740000D03*
%TO.P, ,D5*%
X167640000Y-78740000D03*
%TO.P, ,D6*%
X165100000Y-78740000D03*
%TO.P, ,D7*%
X162560000Y-78740000D03*
%TO.P, ,D8*%
X158496000Y-78740000D03*
%TO.P, ,D9*%
X155956000Y-78740000D03*
%TO.P, ,D10*%
X153416000Y-78740000D03*
%TO.P, ,D11*%
X150876000Y-78740000D03*
%TO.P, ,D12*%
X148336000Y-78740000D03*
%TO.P, ,D13*%
X145796000Y-78740000D03*
D11*
%TO.P, ,GND1*%
X143256000Y-78740000D03*
%TO.P, ,GND2*%
X157480000Y-127000000D03*
%TO.P, ,GND3*%
X160020000Y-127000000D03*
D10*
%TO.P, ,IORF*%
X147320000Y-127000000D03*
%TO.P, ,RST1*%
X149860000Y-127000000D03*
%TO.P, ,SCL*%
X135636000Y-78740000D03*
%TO.P, ,SDA*%
X138176000Y-78740000D03*
%TO.P, ,VIN*%
X162560000Y-127000000D03*
%TD*%
D12*
%TO.N,*%
X148336000Y-78740000D02*
X145034000Y-82042000D01*
X145034000Y-82042000D02*
X111262000Y-82042000D01*
X111262000Y-82042000D02*
X111260000Y-82040000D01*
X111260000Y-82040000D02*
X106910000Y-82040000D01*
X106910000Y-82040000D02*
X103910000Y-79040000D01*
X150876000Y-78740000D02*
X147066000Y-82550000D01*
X147066000Y-82550000D02*
X104880000Y-82550000D01*
X104880000Y-82550000D02*
X101370000Y-79040000D01*
X162560000Y-78740000D02*
X158242000Y-83058000D01*
X158242000Y-83058000D02*
X100308000Y-83058000D01*
X100308000Y-83058000D02*
X96290000Y-79040000D01*
X154940000Y-127000000D02*
X154940000Y-123698000D01*
X108994000Y-122174000D02*
X94019000Y-107199000D01*
X94019000Y-107199000D02*
X94019000Y-78648000D01*
X154940000Y-123698000D02*
X153416000Y-122174000D01*
X104372000Y-76962000D02*
X106450000Y-79040000D01*
X153416000Y-122174000D02*
X108994000Y-122174000D01*
X94019000Y-78648000D02*
X95705000Y-76962000D01*
X95705000Y-76962000D02*
X104372000Y-76962000D01*
X135636000Y-78740000D02*
X135636000Y-71424000D01*
X135636000Y-71424000D02*
X138860000Y-68200000D01*
X138860000Y-68200000D02*
X151258000Y-68200000D01*
X151258000Y-68200000D02*
X153416000Y-70358000D01*
X138176000Y-78740000D02*
X138176000Y-71424000D01*
X138176000Y-71424000D02*
X140780000Y-68820000D01*
X149338000Y-68820000D02*
X150876000Y-70358000D01*
X140780000Y-68820000D02*
X149338000Y-68820000D01*
X158496000Y-78740000D02*
X158496000Y-74930000D01*
X158496000Y-74930000D02*
X157226000Y-73660000D01*
X157226000Y-73660000D02*
X151638000Y-73660000D01*
X151638000Y-73660000D02*
X148336000Y-70358000D01*
X133706000Y-114270000D02*
X133710000Y-114270000D01*
X133710000Y-114270000D02*
X135210000Y-112770000D01*
X130120000Y-117856000D02*
X133706000Y-114270000D01*
X135210000Y-112770000D02*
X136900000Y-112770000D01*
X180340000Y-78740000D02*
X180340000Y-114808000D01*
X180340000Y-114808000D02*
X179543000Y-115605000D01*
X179543000Y-115605000D02*
X178091000Y-115605000D01*
X178091000Y-115605000D02*
X175840000Y-117856000D01*
X177800000Y-78740000D02*
X177800000Y-114300000D01*
X177800000Y-114300000D02*
X177292000Y-114808000D01*
X177292000Y-114808000D02*
X169744000Y-114808000D01*
X169744000Y-114808000D02*
X166696000Y-117856000D01*
X175260000Y-78740000D02*
X175260000Y-113792000D01*
X175260000Y-113792000D02*
X174752000Y-114300000D01*
X174752000Y-114300000D02*
X161108000Y-114300000D01*
X161108000Y-114300000D02*
X157552000Y-117856000D01*
X172720000Y-78740000D02*
X172720000Y-113284000D01*
X172720000Y-113284000D02*
X172212000Y-113792000D01*
X152472000Y-113792000D02*
X148408000Y-117856000D01*
X172212000Y-113792000D02*
X152472000Y-113792000D01*
X170180000Y-78740000D02*
X170180000Y-112776000D01*
X170180000Y-112776000D02*
X169672000Y-113284000D01*
X169672000Y-113284000D02*
X143836000Y-113284000D01*
X143836000Y-113284000D02*
X139264000Y-117856000D01*
X167132000Y-112776000D02*
X136906000Y-112776000D01*
X167640000Y-112268000D02*
X167132000Y-112776000D01*
X136906000Y-112776000D02*
X136900000Y-112770000D01*
X167640000Y-78740000D02*
X167640000Y-112268000D01*
%TD*%
M02*
