M48
; DRILL file {KiCad 7.0.11+dfsg-1build4} date Sun 18 May 2025 02:35:12 PM EDT
; FORMAT={-:-/ absolute / inch / decimal}
; #@! TF.CreationDate,2025-05-18T14:35:12-04:00
; #@! TF.GenerationSoftware,Kicad,Pcbnew,7.0.11+dfsg-1build4
; #@! TF.FileFunction,Plated,1,2,PTH
FMAT,2
INCH
; #@! TA.AperFunction,Plated,PTH,ComponentDrill
T1C0.0400
%
G90
G05
T1
X3.91Y-3.1
X4.01Y-3.1
X4.11Y-3.1
X4.21Y-3.1
X4.31Y-3.1
X4.41Y-3.1
X5.1Y-4.64
X5.1Y-4.88
X5.3Y-4.64
X5.3Y-4.88
X5.34Y-3.1
X5.44Y-3.1
X5.46Y-4.64
X5.46Y-4.88
X5.54Y-3.1
X5.64Y-2.77
X5.64Y-3.1
X5.66Y-4.64
X5.66Y-4.88
X5.7Y-5.0
X5.74Y-2.77
X5.74Y-3.1
X5.8Y-5.0
X5.82Y-4.64
X5.82Y-4.88
X5.84Y-2.77
X5.84Y-3.1
X5.9Y-5.0
X5.94Y-2.77
X5.94Y-3.1
X6.0Y-5.0
X6.02Y-4.64
X6.02Y-4.88
X6.04Y-2.77
X6.04Y-3.1
X6.1Y-5.0
X6.14Y-2.77
X6.14Y-3.1
X6.18Y-4.64
X6.18Y-4.88
X6.2Y-5.0
X6.24Y-2.77
X6.24Y-3.1
X6.3Y-5.0
X6.38Y-4.64
X6.38Y-4.88
X6.4Y-3.1
X6.4Y-5.0
X6.5Y-3.1
X6.54Y-4.64
X6.54Y-4.88
X6.6Y-3.1
X6.6Y-5.0
X6.7Y-3.1
X6.7Y-5.0
X6.74Y-4.64
X6.74Y-4.88
X6.8Y-3.1
X6.8Y-5.0
X6.9Y-3.1
X6.9Y-4.64
X6.9Y-4.88
X6.9Y-5.0
X7.0Y-3.1
X7.0Y-5.0
X7.1Y-3.1
X7.1Y-4.64
X7.1Y-4.88
X7.1Y-5.0
M30
